<?xml version="1.0" standalone="no"?>
<!DOCTYPE svg PUBLIC "-//W3C//DTD SVG 20010904//EN"
 "http://www.w3.org/TR/2001/REC-SVG-20010904/DTD/svg10.dtd">
<svg version="1.0" xmlns="http://www.w3.org/2000/svg"
 width="1024.000000pt" height="1024.000000pt" viewBox="0 0 1024.000000 1024.000000"
 preserveAspectRatio="xMidYMid meet">

<g transform="translate(0.000000,1024.000000) scale(0.100000,-0.100000)"
fill="#000000" stroke="none">
<path d="M4040 6733 c0 -4 51 -190 114 -413 l113 -405 89 -3 89 -3 43 168 c89
348 105 404 112 396 4 -4 37 -123 74 -263 36 -140 69 -265 72 -277 6 -22 12
-23 93 -23 l87 0 14 53 c7 28 57 209 112 402 54 192 98 356 98 363 0 10 -20
12 -82 10 l-81 -3 -71 -287 c-39 -159 -73 -288 -76 -288 -3 0 -39 123 -79 273
-41 149 -78 280 -83 290 -8 15 -20 17 -85 15 l-76 -3 -76 -292 c-41 -160 -77
-290 -79 -288 -2 2 -37 133 -77 292 l-73 288 -86 3 c-47 1 -86 -1 -86 -5z"/>
<path d="M5800 6325 l0 -416 78 3 77 3 3 34 3 34 32 -30 c107 -101 311 -45
373 102 57 137 28 332 -63 420 -84 82 -247 85 -317 6 -11 -11 -22 -21 -25 -21
-3 0 -5 63 -3 140 l3 140 -80 0 -81 0 0 -415z m357 65 c48 -29 73 -86 73 -166
0 -116 -50 -184 -137 -184 -87 0 -133 62 -133 182 0 86 19 132 69 165 42 28
86 29 128 3z"/>
<path d="M1560 6621 c-49 -15 -87 -40 -128 -84 -76 -84 -73 -33 -70 -1103 3
-938 3 -950 24 -994 25 -54 72 -103 128 -133 l41 -22 980 0 980 0 55 30 c30
17 69 49 87 73 66 87 64 49 61 1093 -3 938 -3 944 -24 990 -12 25 -41 64 -64
87 -79 76 -20 72 -1089 71 -526 0 -967 -4 -981 -8z m1897 -227 c54 -41 54 -25
51 -960 -3 -858 -3 -863 -24 -891 -11 -15 -32 -34 -45 -40 -18 -10 -226 -13
-907 -13 l-884 0 -34 34 -34 34 0 886 c0 956 -2 927 52 954 12 6 37 13 53 15
17 3 416 4 887 3 853 -1 857 -1 885 -22z"/>
<path d="M2702 6063 c-5 -10 -16 -40 -25 -68 -9 -27 -95 -291 -191 -585 -96
-294 -178 -547 -182 -562 -5 -24 -2 -29 22 -38 15 -6 52 -10 82 -8 52 3 55 5
67 38 39 104 396 1203 392 1207 -8 7 -110 33 -134 33 -12 0 -26 -8 -31 -17z"/>
<path d="M2047 5803 c-45 -42 -139 -133 -209 -202 -107 -105 -128 -131 -128
-155 0 -25 31 -61 202 -233 188 -188 205 -203 238 -203 39 1 61 14 78 47 29
54 20 68 -149 232 l-162 156 155 148 c86 81 161 160 168 176 21 52 -24 111
-84 111 -19 0 -50 -22 -109 -77z"/>
<path d="M2923 5870 c-28 -11 -43 -40 -43 -81 0 -29 18 -51 154 -186 l155
-153 -137 -133 c-217 -210 -208 -197 -177 -257 18 -36 43 -50 86 -50 28 0 55
23 231 197 109 109 201 208 205 220 3 13 3 33 -1 46 -3 12 -96 109 -205 215
-205 196 -215 203 -268 182z"/>
<path d="M5321 6523 c-66 -23 -143 -104 -171 -178 -31 -84 -25 -207 12 -281
30 -57 93 -119 145 -141 102 -42 251 -22 324 44 38 34 79 98 79 123 0 6 -30
10 -75 10 -64 0 -76 -3 -85 -20 -26 -49 -129 -66 -187 -30 -33 20 -55 54 -67
103 l-6 27 216 0 217 0 -6 76 c-13 178 -126 286 -296 283 -31 0 -76 -8 -100
-16z m186 -135 c28 -26 53 -69 53 -93 0 -13 -20 -15 -135 -15 -74 0 -135 2
-135 5 0 3 9 22 19 43 20 38 54 75 81 85 29 12 92 -1 117 -25z"/>
<path d="M6067 5769 c-177 -42 -287 -199 -287 -410 0 -123 27 -203 93 -276 62
-68 114 -98 202 -118 171 -40 333 32 406 180 26 53 32 80 37 155 l5 90 -177 0
-177 0 3 -67 3 -66 88 2 c99 3 98 3 61 -71 -48 -94 -206 -116 -294 -41 -85 71
-110 256 -50 372 34 67 114 121 180 121 64 0 147 -54 170 -110 l12 -30 85 0
c70 0 84 3 80 14 -3 8 -11 32 -17 53 -15 55 -72 128 -126 159 -81 47 -203 65
-297 43z"/>
<path d="M4046 5718 c8 -29 58 -208 112 -398 l98 -345 99 -3 100 -3 24 93 c25
98 83 324 102 396 7 24 15 39 19 35 4 -4 14 -37 23 -73 9 -36 34 -132 56 -215
22 -82 45 -169 51 -192 l11 -43 99 0 c83 0 100 3 100 15 0 13 203 736 218 773
3 10 -15 12 -84 10 l-89 -3 -72 -284 c-39 -155 -73 -285 -76 -287 -2 -2 -23
67 -46 154 -23 86 -59 217 -78 290 l-36 133 -80 -3 c-76 -3 -81 -4 -88 -28 -4
-14 -38 -143 -75 -287 -38 -144 -71 -260 -74 -258 -3 2 -37 132 -75 289 l-70
286 -92 0 -91 0 14 -52z"/>
<path d="M5321 5748 c-4 -13 -21 -59 -36 -103 -15 -44 -74 -210 -131 -369 -57
-159 -104 -293 -104 -297 0 -5 37 -9 83 -9 l82 0 30 88 30 87 145 3 145 2 28
-90 28 -90 89 0 90 0 -11 28 c-17 44 -214 590 -247 682 l-30 85 -91 3 c-87 3
-92 2 -100 -20z m153 -323 c25 -77 46 -143 46 -148 0 -4 -47 -7 -104 -7 l-104
0 51 155 c28 85 54 151 58 147 4 -4 27 -70 53 -147z"/>
<path d="M6620 5370 l0 -400 80 0 80 0 0 257 c0 219 2 255 14 243 7 -8 82
-124 166 -257 l152 -243 79 0 79 0 0 400 0 400 -75 0 -75 0 -1 -267 c0 -179
-3 -263 -10 -253 -24 37 -294 468 -308 492 -15 27 -19 28 -98 28 l-83 0 0
-400z"/>
<path d="M7390 5370 l0 -400 280 0 280 0 0 70 0 70 -200 0 -200 0 0 95 c0 84
2 95 18 96 9 0 88 0 175 -1 l157 -1 0 70 0 71 -175 0 -175 0 0 95 0 95 200 0
200 0 0 70 0 70 -280 0 -280 0 0 -400z"/>
<path d="M8060 5370 l0 -400 80 0 80 0 0 145 0 145 70 0 71 0 69 -145 69 -145
91 0 c51 0 90 3 88 8 -2 4 -39 77 -82 162 -43 85 -73 156 -68 158 33 11 80 53
102 92 21 38 25 58 25 125 0 99 -26 154 -97 202 -66 44 -123 53 -323 53 l-175
0 0 -400z m352 250 c49 -14 78 -52 78 -102 0 -93 -51 -128 -184 -128 l-86 0 0
120 0 120 78 0 c42 0 94 -5 114 -10z"/>
<path d="M8740 5320 l0 -70 165 0 165 0 0 70 0 70 -165 0 -165 0 0 -70z"/>
<path d="M4286 4819 c-21 -5 -60 -21 -87 -35 -120 -66 -153 -224 -68 -327 37
-45 89 -68 223 -101 157 -39 186 -58 186 -123 0 -104 -171 -140 -262 -55 -15
14 -31 41 -34 59 l-6 34 -82 -3 -81 -3 3 -35 c9 -83 70 -163 155 -201 45 -21
68 -24 162 -24 121 0 181 18 238 73 87 82 91 243 8 329 -33 35 -69 50 -207 87
-146 40 -178 58 -182 106 -4 41 27 76 80 91 59 15 142 -11 168 -54 11 -18 20
-40 20 -50 0 -16 9 -17 83 -15 l82 3 -3 35 c-5 47 -48 125 -86 154 -67 50
-220 78 -310 55z"/>
<path d="M4798 4803 c-2 -5 -2 -185 0 -400 l3 -393 74 0 75 0 0 195 c0 129 4
203 12 220 7 15 30 36 51 47 49 24 94 18 128 -18 24 -25 24 -29 27 -235 l3
-209 75 0 75 0 -3 243 -3 244 -28 42 c-60 90 -219 108 -307 35 l-30 -26 0 131
0 131 -74 0 c-41 0 -76 -3 -78 -7z"/>
<path d="M5603 4606 c-63 -21 -110 -53 -142 -99 -111 -162 -64 -395 96 -473
50 -25 70 -29 143 -29 71 0 93 4 134 25 61 31 120 97 140 157 21 62 21 186 -1
248 -19 57 -88 131 -148 159 -51 25 -166 31 -222 12z m145 -130 c43 -23 70
-57 83 -109 38 -154 -73 -283 -191 -222 -52 27 -73 69 -77 154 -3 65 -1 81 19
115 24 41 77 76 116 76 13 0 35 -6 50 -14z"/>
<path d="M6312 4605 c-19 -8 -47 -29 -63 -46 l-29 -31 0 38 0 39 -76 -3 c-62
-3 -74 -6 -70 -19 3 -8 6 -179 6 -379 l0 -364 70 0 70 0 0 120 c0 117 7 142
29 101 17 -31 91 -61 152 -61 107 0 200 69 236 175 23 68 24 204 0 270 -37
107 -129 175 -237 175 -30 -1 -70 -7 -88 -15z m113 -135 c48 -30 70 -81 69
-165 0 -82 -20 -126 -67 -155 -64 -39 -144 -14 -177 55 -25 52 -27 148 -3 206
29 73 111 101 178 59z"/>
<path d="M3172 3738 c-27 -27 -6 -68 35 -68 31 0 52 42 33 65 -15 18 -51 20
-68 3z"/>
<path d="M4750 3735 c-15 -18 -10 -45 12 -58 22 -15 68 6 68 31 0 39 -55 58
-80 27z"/>
<path d="M6391 3733 c-60 -24 -86 -62 -86 -123 0 -67 26 -92 129 -126 107 -35
126 -47 126 -84 0 -37 -41 -70 -87 -70 -50 0 -102 25 -113 55 -8 22 -15 26
-42 23 -29 -3 -33 -6 -30 -28 7 -66 79 -112 176 -113 107 -1 171 53 171 143 0
69 -32 100 -133 129 -100 29 -122 44 -122 81 0 79 150 79 175 0 5 -15 15 -20
41 -20 29 0 34 4 34 23 0 33 -35 84 -70 102 -48 25 -118 28 -169 8z"/>
<path d="M7302 3738 c-34 -34 0 -78 49 -63 16 5 19 14 17 38 -2 26 -8 33 -28
35 -14 2 -31 -3 -38 -10z"/>
<path d="M1650 3506 l0 -236 40 0 40 0 0 90 0 90 70 0 c122 0 173 44 172 147
0 59 -17 93 -59 120 -21 14 -54 19 -145 22 l-118 3 0 -236z m209 159 c46 -23
55 -89 19 -129 -18 -19 -37 -26 -85 -31 l-63 -6 0 91 0 90 50 0 c28 0 64 -7
79 -15z"/>
<path d="M4390 3505 l0 -235 35 0 35 0 0 105 0 105 101 0 100 0 -3 28 -3 27
-97 3 -98 3 0 69 0 70 110 0 110 0 0 30 0 30 -145 0 -145 0 0 -235z"/>
<path d="M5600 3505 l0 -235 35 0 35 0 2 173 3 172 47 -127 c27 -70 53 -148
60 -173 11 -41 15 -45 44 -45 32 0 32 1 77 123 24 67 50 140 57 162 25 79 30
59 30 -113 l0 -172 35 0 35 0 0 235 0 235 -47 0 -48 0 -65 -180 c-36 -99 -68
-180 -71 -180 -3 0 -13 26 -23 58 -10 31 -39 112 -64 180 l-45 122 -48 0 -49
0 0 -235z"/>
<path d="M7860 3665 c0 -41 -2 -45 -25 -45 -21 0 -25 -5 -25 -30 0 -25 4 -30
25 -30 l25 0 0 -115 c0 -160 13 -181 106 -173 34 3 39 6 39 28 0 21 -6 26 -35
30 l-35 5 -3 113 -3 112 41 0 c39 0 40 1 37 28 -3 23 -9 27 -40 30 -37 3 -37
4 -37 48 0 44 0 44 -35 44 -35 0 -35 0 -35 -45z"/>
<path d="M2163 3623 c-13 -2 -32 -16 -43 -30 l-20 -26 0 27 c0 23 -4 26 -35
26 l-35 0 0 -175 0 -175 35 0 35 0 0 110 c0 138 12 167 71 176 37 6 40 9 37
37 -3 32 -10 37 -45 30z"/>
<path d="M2355 3614 c-53 -18 -83 -51 -100 -108 -38 -128 34 -238 155 -238 59
1 110 28 128 67 16 35 16 35 -19 35 -19 0 -43 -10 -61 -25 -16 -14 -40 -25
-53 -25 -31 0 -70 36 -83 78 l-11 32 124 0 125 0 -6 48 c-7 54 -36 107 -67
124 -39 20 -94 26 -132 12z m79 -54 c21 -8 56 -54 56 -75 0 -3 -39 -5 -86 -5
-84 0 -85 0 -78 23 9 29 24 47 49 57 27 12 30 12 59 0z"/>
<path d="M2768 3622 c-14 -2 -38 -15 -52 -29 l-26 -26 0 27 c0 23 -4 26 -35
26 l-35 0 0 -175 0 -175 34 0 34 0 4 124 c3 138 15 166 69 166 52 0 59 -18 59
-161 l0 -129 35 0 35 0 0 119 c0 105 2 121 21 145 26 33 71 35 93 4 12 -17 16
-50 16 -145 l0 -123 35 0 35 0 0 130 c0 181 -19 220 -105 220 -39 0 -90 -22
-98 -42 -3 -9 -10 -6 -21 8 -18 26 -60 41 -98 36z"/>
<path d="M5339 3620 c-46 -13 -78 -41 -99 -84 -41 -85 -15 -203 54 -246 40
-24 123 -27 166 -5 31 16 60 51 60 72 0 22 -50 14 -82 -12 -16 -14 -38 -25
-49 -25 -32 0 -74 26 -87 55 -25 54 -22 55 108 55 l120 0 0 33 c-1 45 -32 110
-66 134 -34 24 -89 34 -125 23z m85 -71 c15 -12 26 -30 26 -45 0 -23 -2 -24
-81 -24 -79 0 -80 0 -74 23 9 31 52 67 79 67 13 0 35 -9 50 -21z"/>
<path d="M7193 3623 c-13 -2 -32 -16 -43 -30 l-20 -26 0 27 c0 23 -4 26 -35
26 l-35 0 0 -175 0 -175 35 0 35 0 0 110 c0 60 5 120 11 134 11 24 54 46 89
46 12 0 18 8 18 28 0 24 -14 44 -28 40 -3 0 -15 -3 -27 -5z"/>
<path d="M7585 3615 c-22 -8 -45 -22 -52 -30 -10 -15 -12 -14 -15 7 -2 18 -9
23 -33 23 l-30 0 -3 -232 -2 -233 35 0 35 0 0 80 c0 44 2 80 5 80 3 0 15 -9
27 -20 31 -29 115 -28 153 2 64 50 84 167 43 248 -38 73 -94 99 -163 75z m68
-66 c33 -25 48 -81 38 -136 -14 -71 -55 -101 -110 -82 -80 28 -79 196 2 229
33 13 42 12 70 -11z"/>
<path d="M8170 3622 c-47 -6 -81 -25 -95 -53 -35 -67 -4 -120 83 -144 86 -24
102 -33 102 -55 0 -53 -109 -65 -132 -14 -9 18 -19 24 -45 24 -37 0 -40 -8
-18 -50 38 -73 177 -86 240 -23 22 22 25 34 23 71 -4 55 -28 76 -113 98 -33 9
-66 20 -72 26 -22 18 -15 48 13 58 40 16 63 12 90 -15 22 -22 84 -36 84 -20 0
12 -29 62 -42 73 -18 14 -86 29 -118 24z"/>
<path d="M3177 3613 c-4 -3 -7 -82 -7 -175 l0 -168 35 0 35 0 0 175 0 175 -28
0 c-16 0 -32 -3 -35 -7z"/>
<path d="M3330 3477 c0 -165 9 -188 80 -207 44 -12 78 -2 109 31 l21 23 0 -27
c0 -24 4 -27 35 -27 l35 0 -2 173 -3 172 -32 3 -33 3 0 -119 c0 -106 -2 -122
-21 -146 -15 -19 -30 -26 -53 -26 -57 0 -65 20 -68 160 l-3 125 -32 3 -33 3 0
-144z"/>
<path d="M3690 3446 l0 -176 35 0 35 0 0 119 c0 105 2 121 21 145 26 33 71 35
93 4 12 -17 16 -50 16 -145 l0 -123 35 0 35 0 0 125 c0 113 2 127 21 146 28
28 79 23 96 -11 8 -16 13 -68 13 -142 l0 -118 35 0 35 0 0 130 c0 185 -18 220
-112 220 -30 0 -52 -7 -72 -23 l-29 -23 -23 23 c-33 33 -105 32 -139 -1 -24
-24 -24 -24 -27 -2 -2 16 -11 22 -35 24 l-33 3 0 -175z"/>
<path d="M4750 3445 l0 -175 35 0 35 0 0 175 0 175 -35 0 -35 0 0 -175z"/>
<path d="M4870 3618 c0 -2 21 -61 46 -133 26 -71 52 -148 59 -170 11 -37 15
-40 51 -43 l40 -3 58 163 c32 90 61 169 64 176 3 10 -5 13 -34 10 l-38 -3 -41
-127 c-22 -70 -42 -128 -45 -128 -3 0 -20 51 -39 113 -46 148 -45 147 -86 147
-19 0 -35 -1 -35 -2z"/>
<path d="M6784 3611 c-48 -21 -94 -104 -94 -172 0 -64 47 -140 100 -161 65
-25 148 -4 189 48 33 42 28 64 -14 64 -23 0 -35 -5 -35 -13 0 -24 -40 -51 -75
-51 -62 0 -103 66 -90 144 10 57 44 90 95 90 35 0 43 -4 58 -30 14 -24 24 -30
51 -30 31 0 33 2 26 28 -3 15 -19 40 -35 57 -25 25 -38 29 -92 32 -35 1 -72
-1 -84 -6z"/>
<path d="M7305 3612 c-3 -3 -5 -81 -5 -174 l0 -168 35 0 35 0 -2 173 -3 172
-27 1 c-15 1 -30 -1 -33 -4z"/>
</g>
</svg>
